<?xml version="1.0" encoding="utf-8"?>
<!-- Generator: Adobe Illustrator 16.0.0, SVG Export Plug-In . SVG Version: 6.00 Build 0)  -->
<!DOCTYPE svg PUBLIC "-//W3C//DTD SVG 1.1//EN" "http://www.w3.org/Graphics/SVG/1.1/DTD/svg11.dtd">
<svg version="1.1" xmlns="http://www.w3.org/2000/svg" xmlns:xlink="http://www.w3.org/1999/xlink" x="0px" y="0px"
	 width="80.334px" height="66.333px" viewBox="0 0 80.334 66.333" enable-background="new 0 0 80.334 66.333" xml:space="preserve">
<g id="Layer_2" display="none">
	<rect x="-12.492" y="-15.333" display="inline" fill="#4F4F4F" width="106.667" height="105.666"/>
</g>
<g id="Layer_1">
	<rect x="-263" y="-362.333" display="none" width="612" height="792"/>
	<g>
		<defs>
			<rect id="SVGID_1_" x="-4.317" y="-24.197" width="86.41" height="111.828"/>
		</defs>
		<clipPath id="SVGID_2_">
			<use xlink:href="#SVGID_1_"  overflow="visible"/>
		</clipPath>
		<path clip-path="url(#SVGID_2_)" fill="#FFFFFF" d="M67.692,21.091L56.302,57H22.038l-3.436-8.851h26.545
			c0,0,3.696,0.023,4.704-2.638l2.169-7.2c2.869-8.803,3.199-9.491-4.803-9.555c-2.135-0.017-4.331,0.018-5.542,0.01
			c-2.525-0.014-3.142,0.019-2.875-1.425l1.513-4.94c0,0,0.18-1.311,2.491-1.311"/>
		<path clip-path="url(#SVGID_2_)" fill="#FFFFFF" d="M40.392,42.165c4.049,0,3.959-0.16,5.062-4.025
			c1.131-3.95,1.337-4.104-1.694-4.164c-1.49-0.029-3.694,0-3.694,0c-7.336,0-9.156,0.214-8.221-3.392
			c0.379-1.462,0.933-3.628,1.727-6.444c0.566-2.013,1.144-4.145,1.604-5.368c1.677-4.445,4.695-3.745,14.773-3.718
			c13.035,0.037,19.671,0,19.671,0L72.493,6.3H28.157L22.29,27.342c0,0-0.359,1.505-0.906-0.028L13.896,6.3H4.153l12.66,35.867
			L40.392,42.165"/>
	</g>
</g>
</svg>
