<?xml version="1.0" encoding="utf-8"?>
<!-- Generator: Adobe Illustrator 16.0.0, SVG Export Plug-In . SVG Version: 6.00 Build 0)  -->
<!DOCTYPE svg PUBLIC "-//W3C//DTD SVG 1.1//EN" "http://www.w3.org/Graphics/SVG/1.1/DTD/svg11.dtd">
<svg version="1.1" id="Layer_1" xmlns="http://www.w3.org/2000/svg" xmlns:xlink="http://www.w3.org/1999/xlink" x="0px" y="0px"
	 width="520.474px" height="380.981px" viewBox="0 0 520.474 380.981" enable-background="new 0 0 520.474 380.981"
	 xml:space="preserve">
<rect x="-41.104" y="-203.1" display="none" width="612" height="792"/>
<g>
	<defs>
		<rect id="SVGID_1_" x="-41.104" y="-202.1" width="612" height="792"/>
	</defs>
	<clipPath id="SVGID_2_">
		<use xlink:href="#SVGID_1_"  overflow="visible"/>
	</clipPath>
	<path clip-path="url(#SVGID_2_)" fill="none" d="M468.896,118.65l-80.667,254.289H145.563l-24.334-62.667h188
		c0,0,26.167,0.167,33.311-18.676l15.356-50.99c20.333-62.333,22.67-67.217-34-67.667c-15.121-0.12-30.689,0.122-39.254,0.072
		c-17.878-0.105-22.246,0.139-20.368-10.094l10.712-34.979c0,0,1.285-9.287,17.66-9.287"/>
	<path clip-path="url(#SVGID_2_)" fill="none" d="M275.563,267.9c28.667,0,28.013-1.13,35.833-28.5c8-28,9.457-29.082-12-29.5
		c-10.548-0.205-26.166,0-26.166,0c-51.959,0-64.834,1.5-58.222-24.03c2.682-10.354,6.587-25.693,12.221-45.637
		c4.024-14.247,8.103-29.353,11.369-38.006C250.481,70.74,271.842,75.708,343.23,75.9c92.334,0.249,139.333,0,139.333,0l20.333-62
		h-314l-41.553,149.031c0,0-2.537,10.65-6.408-0.212L87.896,13.9h-69l89.667,254H275.563"/>
</g>
</svg>
